<?xml version="1.0" standalone="no"?>
<!DOCTYPE svg PUBLIC "-//W3C//DTD SVG 1.1//EN" "http://www.w3.org/Graphics/SVG/1.1/DTD/svg11.dtd" >
<svg xmlns="http://www.w3.org/2000/svg">
<metadata>
This is a custom SVG webfont generated by Font Squirrel.
Copyright   : Copyright c 2011 by Gesine Todt All rights reserved
Designer    : Gesine Todt
Foundry     : Gesine Todt
</metadata>
<defs>
<font id="AmaranthBoldItalic" horiz-adv-x="1370" >
<font-face units-per-em="2048" ascent="1536" descent="-512" />
<missing-glyph horiz-adv-x="450" />
<glyph unicode=" "  horiz-adv-x="450" />
<glyph unicode="&#x09;" horiz-adv-x="450" />
<glyph unicode="&#xa0;" horiz-adv-x="450" />
<glyph unicode="!" horiz-adv-x="667" d="M43 147q0 84 56.5 142.5t148.5 58.5q184 0 184 -174q0 -84 -57.5 -142.5t-149.5 -58.5q-90 0 -136 47.5t-46 126.5zM145 453l172 917h342l-229 -917h-285z" />
<glyph unicode="&#x22;" horiz-adv-x="903" d="M147 844l80 526h285l-117 -526h-248zM535 844l79 526h285l-117 -526h-247z" />
<glyph unicode="#" horiz-adv-x="1308" d="M25 258l75 236h193l72 227h-207l75 231h205l80 256h264l-80 -256h115l82 256h264l-82 -256h181l-72 -231h-180l-72 -227h192l-73 -234h-193l-80 -260h-264l80 258h-115l-82 -258h-264l82 258h-196zM557 494h117l71 227h-116z" />
<glyph unicode="$" horiz-adv-x="1093" d="M4 291l238 119q27 -66 76 -101t100 -35q66 0 107.5 32t41.5 79q0 80 -84 135l-110 76q-98 70 -144.5 136.5t-46.5 168.5q0 133 89 222t237 118l41 180h242l-35 -178q178 -41 229 -229l-233 -121q-2 4 -17.5 32.5t-24 39t-30 23.5t-49.5 13q-51 0 -84 -22.5t-33 -60.5 q0 -57 94 -121l133 -97q84 -61 121 -128.5t37 -165.5q0 -150 -104.5 -249.5t-268.5 -127.5l-37 -199h-239l29 205q-102 29 -173 97.5t-102 158.5z" />
<glyph unicode="%" horiz-adv-x="1849" d="M96 723q0 209 111.5 348t290.5 139q260 0 260 -266q0 -207 -112 -347t-288 -140q-262 0 -262 266zM342 723q0 -70 45 -70q47 0 86 100.5t39 190.5q0 70 -45 70q-47 0 -86 -100.5t-39 -190.5zM367 0l768 1202h307l-770 -1202h-305zM1051 260q0 207 111.5 346t289.5 139 q260 0 260 -266q0 -207 -111.5 -346t-289.5 -139q-260 0 -260 266zM1296 258q0 -68 45 -68q47 0 86 100.5t39 190.5q0 70 -47 70t-85 -100.5t-38 -192.5z" />
<glyph unicode="&#x26;" horiz-adv-x="1153" d="M-6 295q0 164 70.5 267.5t209.5 178.5q-12 53 -12 103q0 158 115 266.5t305 108.5q109 0 173.5 -48.5t109.5 -142.5l-164 -121q-37 72 -107 72q-55 0 -91 -30.5t-36 -86.5q0 -135 187 -348q68 88 127 178l204 -143q-76 -143 -147 -236q55 -61 133 -139l-197 -201 q-74 70 -137 138q-180 -133 -401 -134q-147 0 -244.5 84t-97.5 234zM319 350q0 -51 29 -76.5t74 -25.5q59 0 131 55q-109 119 -172 215q-61 -76 -62 -168z" />
<glyph unicode="'" horiz-adv-x="516" d="M147 844l80 526h285l-117 -526h-248z" />
<glyph unicode="(" horiz-adv-x="802" d="M96 299q0 352 177.5 667.5t482.5 520.5l139 -199q-223 -160 -355 -420t-132 -551q0 -135 30.5 -243.5t63.5 -160.5t92 -124l-188 -170q-123 104 -216.5 273t-93.5 407z" />
<glyph unicode=")" horiz-adv-x="796" d="M-98 -184q223 162 355 422t132 548q0 137 -30.5 246t-64.5 161t-91 122l188 172q123 -104 216 -274t93 -406q0 -352 -177 -668.5t-482 -519.5z" />
<glyph unicode="*" horiz-adv-x="974" d="M147 1028l103 250l188 -109l31 224l272 -27l-61 -188l217 100l74 -260l-242 -68l145 -172l-233 -147l-109 186l-167 -184l-203 178l184 141z" />
<glyph unicode="+" horiz-adv-x="1079" d="M96 487l47 250h275l53 285h266l-53 -285h279l-45 -250h-279l-53 -299h-269l56 299h-277z" />
<glyph unicode="," horiz-adv-x="573" d="M-123 -129q106 68 140 132.5t34 148.5q0 53 -10 145q61 43 174 43q154 0 154 -145.5t-111 -279.5t-274 -218z" />
<glyph unicode="-" horiz-adv-x="829" d="M82 530l47 240h619l-46 -240h-620z" />
<glyph unicode="." horiz-adv-x="552" d="M-10 147q0 84 56.5 142.5t150.5 58.5q182 0 182 -174q0 -84 -57.5 -142.5t-151.5 -58.5q-90 0 -135 47.5t-45 126.5z" />
<glyph unicode="/" horiz-adv-x="948" d="M-211 -258l954 1751h332l-960 -1751h-326z" />
<glyph unicode="0" horiz-adv-x="1163" d="M59 369q0 246 69 453.5t217 345t351 137.5q195 0 294.5 -104.5t99.5 -297.5q0 -246 -69 -453.5t-217.5 -345t-350.5 -137.5q-195 0 -294.5 104.5t-99.5 297.5zM395 403q0 -188 88 -188q121 0 197 208t76 445q0 189 -90 189q-82 0 -146.5 -106.5t-94.5 -253t-30 -294.5z " />
<glyph unicode="1" horiz-adv-x="819" d="M31 1032q96 27 162.5 50.5t164 77.5t172.5 128h234l-250 -1288h-324l177 909q-137 -84 -240 -112z" />
<glyph unicode="2" horiz-adv-x="1021" d="M-2 0v258l250 240q238 228 283 283q71 88 71 165q0 98 -90 98h-2q-100 0 -274 -81l-95 229q252 113 457 113q158 0 257 -79t99 -210q0 -139 -77.5 -273.5t-268.5 -308.5l-196 -176h450l-49 -258h-815z" />
<glyph unicode="3" horiz-adv-x="1030" d="M-43 104l115 238q100 -57 165.5 -81.5t141.5 -24.5q88 0 140 56t52 142q0 61 -29.5 99t-82.5 38q-45 0 -189 -26l-43 211l93 32l86 29q30 10 71 25.5t62.5 29t44 31t32 35.5t9.5 41q0 31 -20.5 48t-53.5 17q-115 0 -291 -81l-92 229q252 113 471 113q164 0 249 -69 t85 -187q0 -231 -252 -299q98 -35 148.5 -113t50.5 -170q0 -209 -145.5 -344t-395.5 -135q-233 0 -422 116z" />
<glyph unicode="4" horiz-adv-x="1089" d="M-8 328v164l506 800h319l-459 -714h195l57 286l336 58l-67 -344h147l-49 -250h-148l-63 -328h-324l62 328h-512z" />
<glyph unicode="5" horiz-adv-x="1003" d="M-51 104l114 238q187 -106 308 -106q192 0 192 196q0 172 -129 172q-102 0 -233 -51l-103 92l191 637h700l-51 -258h-416l-63 -201q74 23 135 23q145 0 231 -97.5t86 -248.5q0 -254 -139 -383t-399 -129q-233 0 -424 116z" />
<glyph unicode="6" horiz-adv-x="1034" d="M74 748q39 161 116.5 287t209.5 198t305 72q156 -1 262 -62l-97 -227q-98 33 -194 33q-176 0 -256 -279q119 92 248 92q143 0 214.5 -84t71.5 -211q0 -272 -141 -436t-369 -164q-409 0 -409 428q0 192 39 353zM369 403q0 -184 96 -184q74 0 117 81t43 192q-1 129 -97 129 q-72 0 -151 -58q-8 -74 -8 -160z" />
<glyph unicode="7" horiz-adv-x="841" d="M-23 0l549 1024h-438l-49 258h868v-209l-575 -1073h-355z" />
<glyph unicode="8" horiz-adv-x="1044" d="M18 264q0 143 82 237.5t219 172.5q-74 51 -113.5 109.5t-39.5 146.5q0 166 142.5 270.5t353.5 104.5q150 0 244.5 -71t94.5 -194q0 -127 -66.5 -205.5t-191.5 -150.5q82 -53 131.5 -133t49.5 -162q0 -133 -79 -232.5t-195 -144.5t-249 -45q-172 0 -277.5 74t-105.5 223z M342 305q0 -47 36 -71.5t73 -24.5q57 0 99 41t42 106q0 74 -84 164q-166 -106 -166 -215zM489 940q0 -53 60 -109q127 74 127 166q0 33 -19.5 54.5t-54.5 21.5q-51 0 -82 -38t-31 -95z" />
<glyph unicode="9" horiz-adv-x="1017" d="M35 29l98 227q90 -33 193 -33q178 0 258 279q-123 -92 -248 -92q-145 0 -216 84t-71 211q0 272 141.5 436t368.5 164q408 0 408 -431q0 -190 -39 -351t-117 -286.5t-209 -197.5t-303 -72q-153 1 -264 62zM379 780q0 -131 96 -131q68 0 150 60q10 92 10 159q0 184 -98 185 q-72 0 -115 -82t-43 -191z" />
<glyph unicode=":" horiz-adv-x="692" d="M72 147q0 84 56.5 142.5t150.5 58.5q182 0 182 -174q0 -84 -57.5 -142.5t-151.5 -58.5q-90 0 -135 47.5t-45 126.5zM209 825q0 86 56.5 144.5t150.5 58.5q184 0 184 -176q0 -82 -58.5 -140.5t-150.5 -58.5q-90 0 -136 47.5t-46 124.5z" />
<glyph unicode=";" horiz-adv-x="653" d="M-10 -129q106 68 140 132.5t34 148.5q0 53 -10 145q61 43 174 43q154 0 154 -145t-112 -280q-110 -134 -274 -218zM211 825q0 86 56.5 144.5t150.5 58.5q90 0 136 -46t46 -130q0 -82 -57.5 -140.5t-151.5 -58.5q-88 0 -134 47.5t-46 124.5z" />
<glyph unicode="&#x3c;" horiz-adv-x="931" d="M35 506v188l768 350l94 -245l-385 -156q-90 -35 -106 -39q43 -12 102 -43l319 -162l-147 -249z" />
<glyph unicode="=" horiz-adv-x="1093" d="M106 307l48 250h766l-46 -250h-768zM174 668l45 250h768l-47 -250h-766z" />
<glyph unicode="&#x3e;" horiz-adv-x="931" d="M35 395l385 156q53 25 106 39q-43 12 -102 43l-320 162l148 249l645 -354v-190l-768 -350z" />
<glyph unicode="?" horiz-adv-x="901" d="M94 147q0 84 56.5 142.5t148.5 58.5q184 0 184 -174q0 -84 -57 -142.5t-150 -58.5q-90 0 -136 47.5t-46 126.5zM182 1266q258 118 408 118q172 0 265 -78.5t93 -211.5q0 -61 -13 -110.5t-50 -99.5t-58.5 -74t-83.5 -81l-81 -74q-133 -123 -197 -262l-221 62 q16 98 75.5 191t122 152.5t112.5 129t50 125.5q0 39 -23.5 61.5t-64.5 22.5q-18 0 -38.5 -4.5t-35 -8.5t-40.5 -17l-37 -19l-43 -23q-33 -18 -43 -25z" />
<glyph unicode="@" horiz-adv-x="1802" d="M25 215q0 254 88 464t237.5 346t344 210t409.5 74q301 0 476 -142.5t175 -423.5q0 -338 -145.5 -548.5t-399.5 -210.5q-84 0 -132 56t-48 146q0 10 10 109l-26 -59q-111 -252 -322 -252q-139 0 -205.5 92t-66.5 221q0 285 150.5 466t418.5 181q113 0 219 -47l164 -8 l-69 -352q-35 -174 -35 -238q0 -86 39 -86q66 0 123 169t57 316q0 373 -434 373q-145 0 -282.5 -58.5t-244 -163t-170 -261t-63.5 -338.5q0 -170 95 -280.5t302 -110.5q70 0 151 16t126 33l45 16l63 -209l-63 -27q-39 -16 -153 -42.5t-216 -26.5q-274 0 -446 143.5 t-172 452.5zM741 293q0 -76 47 -76q55 0 121 134t105 288l16 72q-23 6 -55 6q-84 0 -140.5 -82t-75 -172t-18.5 -170z" />
<glyph unicode="A" horiz-adv-x="1236" d="M-123 39l748 1331h282l262 -1370h-340l-51 328h-401l-176 -344zM502 575h237q-8 53 -51 373z" />
<glyph unicode="B" horiz-adv-x="1144" d="M14 0l267 1378l237 -14q133 18 205 18q182 0 293.5 -74.5t111.5 -238.5q0 -233 -262 -348q104 -41 149.5 -104.5t45.5 -159.5q0 -215 -180.5 -337t-446.5 -122q-61 0 -137 1t-128 1h-60h-95zM389 221h70q100 0 175 57.5t75 159.5q0 80 -37 117t-115 37h-98zM506 823h51 q106 0 164.5 53.5t58.5 135.5q0 80 -34.5 114.5t-108.5 34.5q-37 0 -68 -8z" />
<glyph unicode="C" horiz-adv-x="1073" d="M66 440q0 252 78.5 464t248.5 351.5t404 139.5q297 0 344 -258l-262 -115q-27 119 -117 119q-84 0 -152.5 -64.5t-107.5 -166t-59.5 -213t-20.5 -220.5q0 -254 186 -254q100 0 279 72l55 -236q-197 -86 -401 -86q-248 0 -361.5 119t-113.5 348z" />
<glyph unicode="D" horiz-adv-x="1333" d="M14 0l267 1380l213 -16q147 31 299 31q475 0 475 -467q0 -211 -42 -374t-137.5 -292t-262.5 -197.5t-400 -68.5q-80 0 -182.5 2t-104.5 2h-125zM397 256h86q217 0 323.5 179t106.5 460q0 250 -188 250q-94 0 -160 -17z" />
<glyph unicode="E" horiz-adv-x="1064" d="M14 0l267 1370h852l-56 -248h-512l-57 -280h420l-54 -248h-411l-70 -346h525v-248h-904z" />
<glyph unicode="F" horiz-adv-x="985" d="M14 0l267 1370h852l-56 -248h-512l-59 -299h422l-54 -248h-415l-113 -575h-332z" />
<glyph unicode="G" horiz-adv-x="1292" d="M57 -332l115 252q244 -106 360 -106q72 0 121.5 37t63.5 98l49 209q-109 -182 -303 -183q-190 0 -287.5 120t-97.5 345q0 186 47 354.5t139 304.5t246 216t348 80q176 0 257 -66.5t110 -187.5l-260 -119q-14 37 -27.5 58.5t-50.5 41t-94 19.5q-119 0 -205 -113t-121 -258 t-35 -293q0 -248 141 -248q68 0 136.5 71t89.5 175l47 242h323l-145 -758q-35 -178 -172 -296t-334 -118q-223 0 -461 123z" />
<glyph unicode="H" horiz-adv-x="1353" d="M10 0l266 1370h332l-102 -528h397l105 528h331l-266 -1370h-332l115 594h-399l-115 -594h-332z" />
<glyph unicode="I" horiz-adv-x="628" d="M14 0l267 1370h331l-266 -1370h-332z" />
<glyph unicode="J" horiz-adv-x="614" d="M-252 -229q125 57 185.5 129t80.5 178l252 1292h332l-250 -1286q-41 -209 -152.5 -322.5t-330.5 -218.5z" />
<glyph unicode="K" horiz-adv-x="1148" d="M31 0l266 1370h240l-267 -1370h-239zM436 750l6 14q186 68 353.5 220.5t167.5 287.5q0 31 -13 71l213 48q27 -51 27 -123q0 -96 -50 -193.5t-127 -172.5t-156 -130t-146 -82q39 -166 158.5 -403.5t250.5 -392.5l-196 -105q-188 244 -283.5 442.5t-204.5 518.5z" />
<glyph unicode="L" horiz-adv-x="901" d="M25 0l268 1370h332l-219 -1122h448v-248h-829z" />
<glyph unicode="M" horiz-adv-x="1722" d="M4 43l328 1327h286l152 -846q16 -98 25 -164l82 164l479 846h284l-153 -1370h-336l96 522q20 127 49 254l-46 -90l-50 -98q-21 -41 -33 -60l-301 -528h-260l-98 522q-23 123 -41 246q-31 -219 -35 -240l-98 -534z" />
<glyph unicode="N" horiz-adv-x="1404" d="M14 37l254 1333h275l303 -696q12 -29 39.5 -100.5t40.5 -100.5q8 125 20 195l115 721l317 -52l-252 -1339h-276l-311 704q-8 16 -74 189q-18 -182 -21 -193l-114 -710z" />
<glyph unicode="O" d="M66 440q0 186 47 354.5t137 304.5t238.5 216t336.5 80q477 0 478 -467q0 -147 -29 -285.5t-90.5 -261.5t-149.5 -214t-215 -144.5t-278 -53.5q-475 0 -475 471zM422 477q0 -254 186 -254q111 0 192 114t114.5 261t33.5 297q0 246 -186 246q-111 0 -192 -111.5 t-114.5 -258t-33.5 -294.5z" />
<glyph unicode="P" horiz-adv-x="1134" d="M14 0l267 1378l227 -14q96 18 199 18q421 0 421 -325q0 -260 -171 -404.5t-402 -144.5q-74 0 -111 4l-98 -512h-332zM492 752h38q113 0 181.5 71.5t68.5 188.5q0 149 -143 149q-45 0 -68 -4z" />
<glyph unicode="Q" d="M96 713q0 119 51.5 239.5t142.5 219t231.5 161t303.5 62.5q477 0 478 -467q0 -412 -243 -731.5t-566 -354.5q47 -98 178 -98q170 0 420 147l108 -247q-274 -172 -547 -172q-410 0 -487 407l86 168q49 -12 106 -12q152 0 290 126t219 325.5t81 408.5q0 246 -190 246 q-127 0 -214 -135.5t-87 -282.5q0 -68 37.5 -95.5t128.5 -39.5l-25 -230q-61 -18 -123 -18q-158 0 -268.5 100.5t-110.5 272.5z" />
<glyph unicode="R" horiz-adv-x="1224" d="M14 0l267 1378l227 -14q96 18 199 18q421 0 421 -317q0 -332 -331 -459q45 -139 165.5 -325.5t258.5 -348.5l-273 -143q-176 217 -267 384t-171 392q-8 0 -26.5 1t-26.5 1l-111 -567h-332zM502 803h28q115 0 182.5 58.5t67.5 160.5q0 139 -143 139q-45 0 -68 -4z" />
<glyph unicode="S" horiz-adv-x="1058" d="M-47 88l143 254q190 -113 307 -113q86 0 135.5 37t49.5 111q0 96 -105 170l-145 106q-102 76 -150.5 159t-48.5 204q0 176 136.5 277.5t349.5 101.5q182 0 265 -72t122 -197l-258 -118q-27 72 -52.5 102.5t-76.5 30.5q-57 0 -93 -33t-36 -82q0 -53 22.5 -84t73.5 -68 l180 -133q172 -125 172 -338q0 -207 -154.5 -318.5t-379.5 -111.5q-242 0 -457 115z" />
<glyph unicode="T" horiz-adv-x="958" d="M96 1122v248h1020l-53 -248h-322l-217 -1122h-334l216 1122h-310z" />
<glyph unicode="U" horiz-adv-x="1343" d="M76 383q0 66 16 147l164 840h332l-164 -838q-10 -49 -10 -106q0 -94 44 -145.5t122 -51.5q96 0 161.5 87t94.5 233l161 821h332l-166 -856q-45 -236 -200.5 -382t-438.5 -146q-233 0 -340.5 107.5t-107.5 289.5z" />
<glyph unicode="V" horiz-adv-x="1220" d="M55 1370h346l113 -772l25 -178q43 102 84 178l397 791l319 -74l-739 -1315h-283z" />
<glyph unicode="W" horiz-adv-x="1755" d="M76 1370h346l24 -711q0 -20 1.5 -90.5t1.5 -105.5q25 86 73 196l309 711h304l34 -735q4 -78 5 -191q14 39 75 191l326 751l319 -75l-682 -1311h-282l-56 649q-10 174 -10 189q-29 -86 -78 -187l-311 -651h-268z" />
<glyph unicode="X" horiz-adv-x="1191" d="M-98 57l526 695l-264 618h348l121 -326l37 -106l69 104l236 349l285 -101l-439 -577l289 -713h-350l-148 420q-6 14 -37 102q-16 -29 -65 -102l-297 -436z" />
<glyph unicode="Y" horiz-adv-x="960" d="M57 1370h336l107 -434q158 305 401 467l197 -158q-94 -90 -148.5 -146.5t-128 -144.5t-114.5 -168.5t-82 -188.5t-58.5 -237t-17.5 -282v-78h-330v82q0 260 92 477z" />
<glyph unicode="Z" horiz-adv-x="1048" d="M-37 0v174l680 950q-8 0 -28.5 -3t-38 -4t-29.5 -1h-383l49 254h860v-178l-676 -948q41 6 101 6h428v-250h-963z" />
<glyph unicode="[" horiz-adv-x="847" d="M61 -381l363 1856h526l-49 -250h-221l-264 -1356h227l-45 -250h-537z" />
<glyph unicode="\" horiz-adv-x="903" d="M201 1493h303l299 -1751h-297z" />
<glyph unicode="]" horiz-adv-x="888" d="M-123 -381l49 250h221l265 1356h-228l45 250h537l-363 -1856h-526z" />
<glyph unicode="^" horiz-adv-x="1067" d="M76 672l483 700h193l217 -743l-289 -35l-76 309q-10 39 -18 109q-20 -59 -56 -113l-217 -348z" />
<glyph unicode="_" horiz-adv-x="997" d="M-45 -369l47 240h1010l-43 -240h-1014z" />
<glyph unicode="`" horiz-adv-x="1021" d="M266 1442q8 12 23.5 31.5t75 65.5t133.5 77q47 -104 116.5 -204.5t116.5 -149.5l47 -50l-149 -135q-29 16 -73 45t-142.5 124t-147.5 196z" />
<glyph unicode="a" horiz-adv-x="1087" d="M45 334q0 305 155.5 499.5t432.5 194.5q127 0 233 -49l164 -10l-86 -447q-20 -94 -20 -174q0 -145 82 -270l-258 -103q-74 84 -74 197q0 72 6 127l-27 -57q-122 -260 -327 -260q-141 0 -211 104t-70 248zM377 328q0 -105 47 -105q57 0 125.5 148.5t109.5 320.5l21 92 q-23 8 -62 9q-66 0 -115.5 -51.5t-75.5 -129t-38 -150.5t-12 -134z" />
<glyph unicode="b" horiz-adv-x="1054" d="M35 98l260 1346l323 41l-65 -334q-25 -119 -100 -305q111 182 276 182q141 0 211 -104.5t70 -247.5q0 -303 -155 -498.5t-431 -195.5q-160 0 -389 116zM375 225q27 -8 61 -8q68 0 118 51t75.5 129t38 151t12.5 134q0 104 -49 104q-57 0 -126 -148.5t-110 -328.5z" />
<glyph unicode="c" horiz-adv-x="823" d="M45 334q0 297 154.5 498.5t423.5 201.5q203 0 256 -229l-234 -90q-2 4 -6 16t-6 17.5t-7 14.5t-11.5 13t-14.5 8t-20 4q-94 0 -149.5 -146t-55.5 -304q0 -123 96 -123q52 0 199 49l71 -217l-7 -3q-7 -3 -18 -7t-26.5 -10.5t-34.5 -11.5l-40 -11q-21 -6 -45.5 -12 t-50 -10.5t-53.5 -6.5t-54 -2q-193 0 -280 103.5t-87 257.5z" />
<glyph unicode="d" horiz-adv-x="1060" d="M45 334q0 305 155.5 499.5t432.5 194.5q49 0 96 -8l82 424l319 41l-196 -1024q-10 -51 -10 -113q0 -145 82 -270l-258 -103q-74 84 -74 197q0 72 6 127l-27 -57q-123 -260 -327 -260q-141 0 -211 104t-70 248zM377 328q0 -105 47 -105q57 0 125.5 148.5t109.5 320.5 l21 92q-23 8 -62 9q-66 0 -115.5 -51.5t-75.5 -129t-38 -150.5t-12 -134z" />
<glyph unicode="e" horiz-adv-x="960" d="M45 334q0 295 155.5 497.5t422.5 202.5q166 0 244.5 -67.5t78.5 -184.5q0 -172 -158.5 -287.5t-414.5 -138.5q0 -4 -1 -20.5t-1 -24.5q0 -96 100 -96q33 0 109.5 21.5t136.5 42.5l59 20l70 -209l-71 -32q-44 -20 -159.5 -52.5t-203.5 -32.5q-193 0 -280 103.5t-87 257.5z M406 580q104 12 165.5 61t61.5 100q-1 56 -60 56q-53 0 -98 -59.5t-69 -157.5z" />
<glyph unicode="f" horiz-adv-x="716" d="M-221 -233q135 63 204.5 132.5t90.5 176.5l133 690h-154v238h209q-45 72 -45 172q0 152 109.5 227.5t283.5 75.5q131 0 200.5 -54t100.5 -165l-252 -113q-8 27 -11 36t-11 27.5t-18.5 24.5t-24.5 6q-76 0 -76 -94q0 -63 19 -143h235l-41 -238h-211l-135 -686 q-29 -139 -95.5 -238.5t-156.5 -163t-237 -133.5z" />
<glyph unicode="g" horiz-adv-x="1103" d="M49 -332l115 244q225 -94 350 -94q80 0 124 46t44 111q0 23 -1 67t-1 85q0 4 16 174l-26 -59q-121 -260 -328 -260q-141 0 -210 104t-69 248q0 303 155 498.5t431 195.5q123 0 236 -49l164 -10q-115 -573 -115 -650q0 -72 16.5 -186.5t16.5 -187.5q0 -197 -116 -298.5 t-319 -101.5q-227 0 -483 123zM393 328q0 -105 49 -105q57 0 128 156t112 340l14 65q-37 8 -59 9q-68 0 -118 -51.5t-75.5 -129t-38 -150.5t-12.5 -134z" />
<glyph unicode="h" horiz-adv-x="1110" d="M35 0l284 1444l318 41l-57 -301q-10 -63 -35 -130t-74 -176.5t-65 -148.5q86 168 173 233.5t209 65.5q256 0 256 -254q0 -125 -61 -306t-61 -247q0 -104 26 -221h-319q-14 82 -15 156q0 100 55.5 283.5t55.5 262.5q0 63 -49 64q-74 0 -150.5 -140.5t-107.5 -293.5 l-66 -332h-317z" />
<glyph unicode="i" horiz-adv-x="606" d="M55 184q0 18 8 64l152 756h313l-133 -678q-8 -47 -8 -54q0 -37 27 -36q25 0 92 22v-221q-108 -51 -223 -51q-106 0 -167 54t-61 144zM240 1298q0 76 53 130.5t139 54.5q170 0 170 -164q0 -76 -53 -129t-139 -53q-84 0 -127 44t-43 117z" />
<glyph unicode="j" horiz-adv-x="526" d="M-283 -236q141 63 207 133t90 197l181 910h311l-182 -924q-23 -117 -60 -195t-104.5 -139t-134 -101t-193.5 -102zM225 1298q0 76 52.5 130.5t138.5 54.5q172 0 172 -164q0 -76 -53.5 -129t-139.5 -53q-84 0 -127 44t-43 117z" />
<glyph unicode="k" horiz-adv-x="1169" d="M35 0l282 1444l318 41l-57 -301q-10 -53 -34 -116.5t-62 -150t-52 -122.5q139 233 375 233q115 0 183.5 -64.5t68.5 -183.5q0 -66 -23.5 -124t-57.5 -95t-68 -64.5t-57 -38.5l-24 -12q78 -229 326 -514l-250 -135q-281 258 -395 703l4 35q59 20 134 72t75 116 q0 59 -55 59q-86 0 -151.5 -139t-100.5 -315l-64 -328h-315z" />
<glyph unicode="l" horiz-adv-x="618" d="M45 188q0 18 8 64l232 1192l319 41l-221 -1159q-8 -47 -8 -54q0 -37 31 -36h2q20 0 114 24v-219q-123 -49 -250 -49q-111 0 -169 52t-58 144z" />
<glyph unicode="m" horiz-adv-x="1642" d="M55 0l105 524q20 96 20 176q0 129 -63 232l258 100q57 -63 57 -170q0 -31 -14 -151l26 57q61 135 141.5 197.5t196.5 62.5q213 0 244 -192q103 192 293 192h2q256 0 256 -254q0 -125 -61.5 -306t-61.5 -247q0 -104 27 -221h-320q-14 82 -14 156q0 100 54 283.5t54 262.5 q0 63 -45 64q-68 0 -135 -133t-98 -289l-66 -344h-317l104 524q20 113 21 178q0 63 -47 64q-68 0 -135.5 -134t-98.5 -290l-65 -342h-318z" />
<glyph unicode="n" horiz-adv-x="1130" d="M55 0l105 524q20 96 20 176q0 129 -63 232l258 100q57 -63 57 -170q0 -45 -14 -151l26 57q121 260 363 260q256 0 256 -254q0 -125 -61.5 -306t-61.5 -247q0 -104 27 -221h-320q-14 82 -14 156q0 100 55 283.5t55 262.5q0 63 -49 64q-74 0 -150.5 -140.5t-107.5 -293.5 l-63 -332h-318z" />
<glyph unicode="o" horiz-adv-x="1034" d="M45 334q0 297 155 498.5t423 201.5q193 0 279.5 -104.5t86.5 -259.5q0 -299 -153.5 -498t-423.5 -199q-193 0 -280 103.5t-87 257.5zM375 319q0 -116 79 -116h1q90 0 146 157.5t56 326.5q0 118 -77 118q-92 0 -148.5 -159t-56.5 -327z" />
<glyph unicode="p" horiz-adv-x="1099" d="M-27 -455l189 979q20 96 20 176q0 129 -63 232l258 100q57 -63 57 -170q0 -51 -14 -147l26 57q119 256 328 256q141 0 211 -104.5t70 -247.5q0 -305 -156 -499.5t-432 -194.5q-39 0 -96 8l-78 -404zM418 225q27 -8 63 -8q66 0 116 51t75.5 129t38 151t12.5 134 q0 104 -47 104q-59 0 -127 -147t-115 -346z" />
<glyph unicode="q" horiz-adv-x="1069" d="M45 334q0 305 155.5 499.5t432.5 194.5q123 0 235 -49l164 -10l-14 -54l-256 -1329l-324 -41l62 314q20 104 98 301q-106 -178 -272 -178q-141 0 -211 104.5t-70 247.5zM377 328q0 -105 47 -105q57 0 127 145.5t106 317.5l23 98q-41 8 -62 9q-66 0 -115.5 -51.5 t-75.5 -129t-38 -150.5t-12 -134z" />
<glyph unicode="r" horiz-adv-x="833" d="M55 0l105 524q20 96 20 176q0 129 -63 232l258 100q57 -63 57 -170q0 -31 -14 -153q51 172 123.5 245.5t183.5 73.5q129 0 197 -76l-168 -266q-55 59 -117 59q-55 0 -99 -72.5t-67 -172.5l-98 -500h-318z" />
<glyph unicode="s" horiz-adv-x="870" d="M-27 92l127 230q150 -111 236 -111q102 0 102 78q0 72 -84 114l-67 35q-160 80 -160 277q0 143 104 231t297 88q270 0 308 -246l-234 -79q-2 6 -6 23.5t-7 24.5t-9.5 19t-13.5 17.5t-19 9.5t-29 4q-35 0 -51 -23.5t-16 -50.5q0 -55 73 -100l54 -31q61 -37 92.5 -62.5 t61.5 -84t30 -140.5q0 -145 -109.5 -243.5t-306.5 -98.5q-168 0 -367 116z" />
<glyph unicode="t" horiz-adv-x="770" d="M86 766v238h201l84 235l284 64l-59 -299h209l-37 -238h-217l-86 -434q-6 -20 -6 -61.5t59 -41.5q23 0 64 8.5t69 17.5l29 9v-231q-127 -47 -293 -47q-137 0 -198.5 49t-61.5 147q0 29 8 78l103 506h-152z" />
<glyph unicode="u" horiz-adv-x="1120" d="M55 236q0 115 58.5 303t58.5 262q0 90 -20 157l274 68q57 -117 57 -238q0 -84 -53 -245.5t-53 -237.5q0 -61 47 -61q74 0 150.5 140t107.5 294l63 326h316l-103 -519q-20 -96 -20 -174q0 -123 70 -233l-258 -103q-61 70 -62 179q0 39 12 145l-26 -57q-121 -260 -363 -260 q-256 0 -256 254z" />
<glyph unicode="v" horiz-adv-x="1071" d="M76 240q0 53 18 163l117 601h311l-116 -609q-12 -61 -13 -106q0 -74 60 -74q96 0 184 198.5t88 387.5q0 89 -20 157l274 68q57 -117 57 -238q0 -190 -78.5 -379.5t-209.5 -299.5q-143 -123 -377 -123q-139 0 -217 64.5t-78 189.5z" />
<glyph unicode="w" horiz-adv-x="1525" d="M76 240q0 53 18 163l117 601h311l-116 -609q-12 -61 -13 -106q0 -74 58 -74q90 0 155.5 193.5t65.5 392.5q0 90 -21 157l275 68q57 -117 57 -238q0 -279 -143 -507q10 -66 67 -66q61 0 126 95.5t106 233.5t41 257q-1 89 -21 157l275 68q57 -123 57 -238 q0 -186 -78 -373.5t-209 -299.5q-147 -129 -352 -129q-135 0 -207 88q-129 -88 -272 -88q-139 0 -218 64.5t-79 189.5z" />
<glyph unicode="x" horiz-adv-x="999" d="M-129 0l487 535l-235 469h334l86 -191q25 -63 39 -92q33 37 61 78q29 37 29 73q0 25 -15 86l273 68q45 -94 45 -143q0 -76 -49 -152q-49 -74 -219 -227l223 -504h-334l-92 246q-4 8 -23 63q-16 -25 -53 -71l-188 -238h-369z" />
<glyph unicode="y" horiz-adv-x="1126" d="M61 -332l115 244q225 -94 350 -94q80 0 124 46t44 111q0 23 -1 67t-1 85q0 20 17 174l-27 -59q-121 -260 -363 -260q-256 0 -256 254q0 115 58.5 303t58.5 262q0 90 -20 157l274 68q57 -117 58 -238q0 -84 -54.5 -245.5t-54.5 -237.5q0 -61 49 -61q74 0 150.5 140 t107.5 294l64 326h315q-123 -625 -123 -685q0 -72 16.5 -186.5t16.5 -187.5q0 -197 -115.5 -298.5t-318.5 -101.5q-227 0 -484 123z" />
<glyph unicode="z" horiz-adv-x="831" d="M-57 0v184l487 586q-86 -6 -176 -6h-145v240h708v-183l-475 -590q37 6 59 7q37 0 93.5 -5.5t85.5 -5.5q84 1 170 52l73 -244q-98 -61 -266 -62q-82 0 -247 13.5t-251 13.5h-116z" />
<glyph unicode="{" horiz-adv-x="817" d="M51 -180q0 59 31 176l61 242q12 41 13 84q0 92 -95 106v211q82 25 132.5 67t60.5 125l45 361q16 154 121.5 222.5t257.5 68.5q47 0 166 -27l-51 -260q-49 18 -88 18q-43 0 -67 -30.5t-28 -63.5l-32 -289q-23 -195 -207 -299q106 -68 106 -167q0 -49 -22 -140l-56 -225 q-16 -59 -16 -66q0 -18 12.5 -30.5t32.5 -12.5q49 0 121 27l-57 -293q-111 -18 -179 -18q-115 0 -188.5 54t-73.5 159z" />
<glyph unicode="|" horiz-adv-x="737" d="M25 -258l344 1751h301l-342 -1751h-303z" />
<glyph unicode="}" horiz-adv-x="813" d="M-143 -369l49 263q49 -18 90 -19q43 0 65.5 29.5t26.5 64.5l35 287q23 199 207 299q-109 70 -109 170q0 49 23 139l57 226q0 4 7 29.5t7 35.5q0 41 -43 41q-53 0 -120 -25l55 293q111 18 178 19q115 0 189.5 -54.5t74.5 -158.5q0 -49 -31 -176l-63 -242q-12 -41 -12 -86 q0 -88 96 -104v-211q-178 -53 -195 -193l-43 -362q-18 -152 -122.5 -220.5t-255.5 -68.5q-43 0 -166 24z" />
<glyph unicode="~" horiz-adv-x="1101" d="M76 631q74 90 147.5 143t173.5 53q74 0 132.5 -30.5t106.5 -61t97 -30.5q47 0 83 18t93 76l117 -140q-151 -194 -317 -194h-2q-74 0 -132.5 30.5t-106.5 61.5t-97 31t-85 -18.5t-91 -75.5z" />
<glyph unicode="&#xa1;" horiz-adv-x="667" d="M-47 -373l231 918h285l-174 -918h-342zM180 823q0 82 58.5 140.5t150.5 58.5q90 0 136 -47t46 -125q0 -84 -56 -142.5t-148 -58.5q-186 0 -187 174z" />
<glyph unicode="&#xa2;" horiz-adv-x="1136" d="M96 483q0 250 130.5 430t359.5 209l28 181h224l-29 -179q205 -18 242 -204l-201 -89q-29 76 -72 87l-94 -603q84 16 168 80l76 -168q-94 -90 -275 -112l-37 -238h-223l35 234q-172 10 -252 116.5t-80 255.5zM418 485q0 -111 47 -149l86 565q-72 -47 -102.5 -171 t-30.5 -245z" />
<glyph unicode="&#xa3;" horiz-adv-x="1249" d="M66 180l8 5q8 5 18 12l25 19q14 11 27.5 25.5t25.5 32t23.5 39t17.5 45.5l29 115h-123l49 252h139l39 154q51 197 189.5 310.5t347.5 113.5q176 0 252.5 -71t99.5 -190l-248 -110q-14 35 -25.5 54.5t-37 33.5t-64.5 14q-72 0 -122 -48t-74 -132l-39 -129h311l-90 -252 h-295l-10 -39q-41 -129 -113 -207q47 8 121 9q39 0 101.5 -5.5t88.5 -5.5q94 0 178 47l70 -233q-104 -66 -256 -66q-86 0 -257 13.5t-273 13.5q-20 0 -70 -4z" />
<glyph unicode="&#xa4;" horiz-adv-x="1325" d="M4 166l193 147q-31 68 -31 154q0 217 135 373l-141 178l215 147l117 -192q111 47 225 47q106 0 194 -39l187 184l172 -192l-195 -152q31 -72 31 -149q0 -227 -141 -379l137 -172l-213 -148l-117 189q-98 -43 -219 -43q-106 0 -193 35l-184 -181zM430 502q0 -166 154 -166 q100 0 177 90t77 203q0 164 -154 164q-102 0 -178 -89.5t-76 -201.5z" />
<glyph unicode="&#xa5;" horiz-adv-x="1150" d="M76 162l49 250h223l10 57h-223l49 250h131l-204 569h329l133 -495l338 514l256 -121l-350 -467h139l-49 -250h-227l-10 -57h227l-49 -250h-227l-29 -162h-322l29 162h-223z" />
<glyph unicode="&#xa6;" horiz-adv-x="735" d="M25 -258l153 790h303l-153 -790h-303zM213 698l156 795h301l-154 -795h-303z" />
<glyph unicode="&#xa7;" horiz-adv-x="1050" d="M45 420q0 121 72.5 217t204.5 147q-53 80 -54 168q0 139 115 252t299 113q143 0 242 -84l-129 -211q-57 53 -109 53q-41 0 -67.5 -26.5t-26.5 -75.5q0 -39 37 -83t91 -87t107.5 -91t90 -115t36.5 -142q0 -121 -73.5 -217.5t-202.5 -149.5q53 -86 53 -166 q0 -141 -115 -252.5t-299 -111.5q-143 0 -241 84l129 211q57 -53 108 -54q41 0 68 27t27 76q0 41 -37 84t-91.5 86t-107.5 91t-90 114.5t-37 142.5zM391.5 401q26.5 -43 48.5 -66l80 -77q115 41 115 135q0 37 -25.5 79t-50.5 66l-78 76q-116 -37 -116 -131q0 -39 26.5 -82z " />
<glyph unicode="&#xa8;" horiz-adv-x="1081" d="M164 1307q0 72 46 120t126 48q153 0 153 -146q0 -70 -49 -118t-127 -48q-74 0 -111.5 39t-37.5 105zM610 1307q0 72 46 120t124 48q154 0 154 -148q0 -68 -48 -116t-126 -48q-74 0 -112 39t-38 105z" />
<glyph unicode="&#xa9;" horiz-adv-x="1550" d="M55 535q0 383 245 633.5t615 250.5q268 0 423 -155.5t155 -405.5q0 -383 -244.5 -635t-615.5 -252q-266 0 -422 157t-156 407zM279 584q0 -201 102 -307.5t287 -106.5q240 0 421 184.5t181 456.5q0 201 -102.5 306.5t-288.5 105.5q-139 0 -274.5 -74t-230.5 -224.5 t-95 -340.5zM432 588q0 215 125 371.5t328 156.5q166 0 205 -123l-150 -137q-27 43 -68 43q-74 0 -113.5 -86t-39.5 -197q0 -114 83 -114h1q55 0 131 35l49 -170q-131 -74 -270 -74q-145 0 -213 81t-68 214z" />
<glyph unicode="&#xaa;" horiz-adv-x="868" d="M106 877q0 217 112 356t308 139q102 0 174 -35l134 -6l-64 -321q-14 -66 -14 -121q0 -106 61 -191l-205 -80q-51 59 -51 154q0 37 2 76q-107 -225 -254 -225q-102 0 -152.5 75.5t-50.5 178.5zM367 879q0 -58 28 -58q37 0 79 94.5t67 202.5l14 62q-10 2 -37 2 q-53 0 -89 -58.5t-49 -122t-13 -122.5z" />
<glyph unicode="&#xab;" horiz-adv-x="1294" d="M72 502q188 205 524 465l133 -164l-305 -301l211 -338l-170 -133q-268 266 -393 471zM596 502q188 205 524 465l133 -164l-305 -301l211 -338l-170 -133q-268 266 -393 471z" />
<glyph unicode="&#xac;" horiz-adv-x="1077" d="M86 594l47 250h858l-94 -500h-260l45 250h-596z" />
<glyph unicode="&#xad;" horiz-adv-x="819" d="M76 532l47 240h618l-43 -240h-622z" />
<glyph unicode="&#xae;" horiz-adv-x="1187" d="M137 823q0 240 161 418t421 178q178 0 284.5 -103.5t106.5 -279.5q0 -240 -161 -419t-419 -179q-178 0 -285.5 104.5t-107.5 280.5zM301 854q0 -121 63.5 -197.5t192.5 -76.5q166 0 277.5 123.5t111.5 302.5q0 123 -63.5 198.5t-190.5 75.5q-166 0 -278.5 -124 t-112.5 -302zM401 666l103 532l92 -14q49 8 82 8q72 0 115 -31t43 -90q0 -111 -115 -168q20 -61 96 -178l-110 -76q-61 100 -105 223q-6 0 -13 2.5t-9 2.5l-41 -211h-138zM600 983q18 0 31 2q67 12 67 63q0 46 -55 46l-22 -2z" />
<glyph unicode="&#xaf;" horiz-adv-x="1013" d="M147 1235l39 240h691l-33 -240h-697z" />
<glyph unicode="&#xb0;" horiz-adv-x="536" d="M86 1167q0 125 87 214t220 89q102 0 161.5 -61t59.5 -158q0 -125 -87 -214t-220 -89q-104 0 -162.5 60.5t-58.5 158.5zM268 1182q0 -70 66 -70q43 0 70.5 37t27.5 84q0 74 -63 74q-45 0 -73 -38t-28 -87z" />
<glyph unicode="&#xb1;" horiz-adv-x="1163" d="M96 45l47 250h275l37 192h-277l47 250h275l53 285h266l-53 -285h278l-45 -250h-278l-35 -192h279l-47 -250h-822z" />
<glyph unicode="&#xb2;" horiz-adv-x="665" d="M45 645v203l133 117q102 90 137 127.5t35 62.5q0 27 -28 27q-46 0 -138 -43l-69 186q143 66 286 66q102 0 171 -46.5t69 -136.5q0 -80 -46 -144.5t-151 -148.5l-84 -67h238l-37 -203h-516z" />
<glyph unicode="&#xb3;" horiz-adv-x="708" d="M45 721l72 153q106 -55 157 -55q47 0 72 24.5t25 65.5q0 47 -45 47q-20 0 -95 -18l-38 154q165 50 190 75q13 13 12 27q0 23 -26 23q-45 0 -144 -50l-63 152q141 72 297 72q84 0 144.5 -40t60.5 -118q0 -119 -136 -158q109 -41 109 -166q0 -113 -92 -190.5t-238 -77.5 q-139 0 -262 80z" />
<glyph unicode="&#xb4;" horiz-adv-x="1021" d="M233 1229q18 31 52 78t134.5 151.5t196.5 157.5q12 -8 33 -24.5t67 -76t75 -129.5q-98 -47 -204 -124.5t-162 -131.5l-56 -53z" />
<glyph unicode="&#xb5;" horiz-adv-x="1167" d="M-47 -455l280 1459h314l-125 -654q-2 -14 -2 -40.5t16.5 -44t36.5 -17.5q76 0 150.5 137t105.5 293l66 332h315l-104 -525q-20 -96 -21 -174q0 -123 70 -233l-258 -103q-61 70 -62 179q0 43 15 145l-29 -68q-57 -133 -119.5 -191t-150.5 -58q-82 0 -132 69 q18 -127 -4 -233l-43 -232z" />
<glyph unicode="&#xb6;" horiz-adv-x="1171" d="M106 842q0 231 166 373.5t447 154.5l-162 -864q-223 0 -337 88t-114 248zM285 -236q137 63 202.5 136t90.5 198l245 1272h324l-244 -1268q-23 -115 -67.5 -201.5t-116.5 -152t-141.5 -107.5t-180.5 -98z" />
<glyph unicode="&#xb7;" horiz-adv-x="542" d="M76 664q0 84 56.5 142t150.5 58q184 0 184 -174q0 -84 -58.5 -142.5t-150.5 -58.5q-90 0 -136 47.5t-46 127.5z" />
<glyph unicode="&#xb8;" horiz-adv-x="997" d="M246 -399l78 157q68 -51 137 -51q63 0 63 35q0 20 -20.5 37.5t-46 28t-46 32t-20.5 49.5q0 45 70 131h164q-33 -41 -33 -73q0 -18 24.5 -37t53 -34t53.5 -48t25 -76q0 -104 -83 -160.5t-192 -56.5q-123 0 -227 66z" />
<glyph unicode="&#xb9;" horiz-adv-x="606" d="M66 1237q201 51 301 149h192l-137 -739h-262l86 455q-53 -39 -103 -53z" />
<glyph unicode="&#xba;" horiz-adv-x="854" d="M106 887q0 209 114 348t298 139q133 0 200.5 -68.5t67.5 -197.5q0 -209 -113.5 -347t-295.5 -138q-133 0 -202 67.5t-69 196.5zM365 877q0 -58 41 -58q53 0 88.5 109.5t35.5 191.5q0 57 -43 58q-51 0 -86.5 -110t-35.5 -191z" />
<glyph unicode="&#xbb;" horiz-adv-x="1294" d="M18 195l304 301q-174 277 -209 338l170 133q266 -266 393 -471q-188 -205 -524 -465zM541 195l305 301q-174 277 -209 338l168 133q268 -266 395 -471q-203 -221 -526 -465z" />
<glyph unicode="&#xbc;" horiz-adv-x="1591" d="M86 1051q201 51 301 149h193l-138 -739h-262l86 454q-53 -39 -102 -53zM233 0l768 1202h308l-770 -1202h-306zM883 150v153l243 434h240l-227 -391h86l71 186l185 41l-43 -227h94l-41 -196h-92l-27 -154h-221l29 154h-297z" />
<glyph unicode="&#xbd;" horiz-adv-x="1626" d="M86 1051q201 51 301 149h193l-138 -739h-262l86 454q-53 -39 -102 -53zM233 0l768 1202h308l-770 -1202h-306zM977 0v203l133 116q102 90 137 128t35 63q0 27 -29 27q-45 0 -137 -43l-69 186q141 65 282 65h4q102 0 171 -46t69 -136q0 -80 -46 -144.5t-151 -148.5 l-84 -67h238l-37 -203h-516z" />
<glyph unicode="&#xbe;" horiz-adv-x="1685" d="M59 539l70 153q106 -55 158 -55q47 0 71.5 24.5t24.5 65.5q0 47 -45 47q-20 0 -94 -18l-39 153q63 18 86 27l59 22q35 13 46.5 25t11.5 29q0 23 -25 22q-47 0 -145 -49l-64 152q141 71 297 71q84 0 144.5 -40t60.5 -117q0 -119 -135 -158q110 -43 110 -164 q0 -115 -93 -192.5t-239 -77.5q-139 0 -260 80zM330 0l768 1202h307l-770 -1202h-305zM977 150v153l244 434h239l-227 -391h86l74 186l182 41l-43 -227h96l-41 -196h-92l-29 -154h-221l31 154h-299z" />
<glyph unicode="&#xbf;" horiz-adv-x="868" d="M-63 -98q0 51 13 97t27.5 79t50 72.5t56 60t70.5 65.5l69 64q135 129 197 262l221 -61q-16 -98 -76.5 -192.5t-123 -154t-112.5 -128t-50 -125.5q0 -39 24.5 -60.5t65.5 -21.5q18 0 37.5 4t35 9t40 16.5t37.5 18.5l43 23l44 25l94 -227q-262 -117 -405 -117 q-172 0 -265 79t-93 212zM399 821q0 82 58.5 140.5t150.5 58.5q88 0 134 -47t46 -125q0 -84 -55 -142.5t-149 -58.5q-90 0 -137.5 46t-47.5 128z" />
<glyph unicode="&#xc0;" horiz-adv-x="1230" d="M-98 39l747 1331h283l262 -1370h-340l-51 328h-402l-176 -344zM348 1708q4 14 15.5 36.5t58.5 82t110 106.5q70 -90 162 -172t150 -117l57 -36l-113 -166q-31 8 -81 25.5t-167.5 86t-191.5 154.5zM526 575h238q-8 53 -51 373z" />
<glyph unicode="&#xc1;" horiz-adv-x="1230" d="M-98 39l747 1331h283l262 -1370h-340l-51 328h-402l-176 -344zM526 575h238q-8 53 -51 373zM684 1616q8 10 23.5 25.5t64.5 60.5t98.5 83t121 80t136.5 64q10 -10 28 -29.5t52.5 -86t51.5 -140.5q-104 -29 -222 -86t-184 -100l-66 -43z" />
<glyph unicode="&#xc2;" horiz-adv-x="1230" d="M-98 39l747 1331h283l262 -1370h-340l-51 328h-402l-176 -344zM469 1645q233 199 432 307q55 -78 135 -156t132 -117l53 -39l-111 -167q-150 43 -274 163l-263 -163zM526 575h238q-8 53 -51 373z" />
<glyph unicode="&#xc3;" horiz-adv-x="1230" d="M-98 39l747 1331h283l262 -1370h-340l-51 328h-402l-176 -344zM526 575h238q-8 53 -51 373zM653 1620l29 133q49 29 115 29q23 0 62.5 -12.5t72.5 -12.5q20 0 48 4t45 9l17 6l-26 -134q-49 -28 -113 -28h-4q-23 0 -61.5 12t-71.5 12q-20 0 -48 -4t-46 -9z" />
<glyph unicode="&#xc4;" horiz-adv-x="1230" d="M-98 39l747 1331h283l262 -1370h-340l-51 328h-402l-176 -344zM459 1657q0 72 46 120t126 48q153 0 153 -146q0 -70 -48 -118t-128 -48q-74 0 -111.5 39t-37.5 105zM526 575h238q-8 53 -51 373zM905 1657q0 72 46 120t124 48q154 0 154 -148q0 -68 -48 -116t-126 -48 q-74 0 -112 39t-38 105z" />
<glyph unicode="&#xc5;" horiz-adv-x="1230" d="M-98 39l739 1315q-57 53 -57 145q0 113 76.5 191.5t193.5 78.5q92 0 144.5 -54t52.5 -140q0 -141 -115 -223l258 -1352h-340l-51 328h-402l-176 -344zM526 575h238q-8 53 -51 373zM743 1513q0 -61 58 -61q39 0 63.5 33t24.5 74q-1 63 -58 63q-39 0 -63.5 -33t-24.5 -76z " />
<glyph unicode="&#xc6;" horiz-adv-x="1744" d="M-109 55l893 1315h1028l-53 -248h-504l-55 -280h410l-56 -248h-399l-72 -346h514v-248h-890l63 330h-321l-232 -363zM604 578h215l101 528h-9q-102 -205 -290 -506z" />
<glyph unicode="&#xc7;" horiz-adv-x="1073" d="M66 440q0 252 78.5 464t248.5 351.5t404 139.5q297 0 344 -258l-262 -115q-27 119 -117 119q-84 0 -152.5 -64.5t-107.5 -166t-59.5 -213t-20.5 -220.5q0 -254 186 -254q100 0 279 72l55 -236q-182 -80 -358 -86q-4 -10 -4 -26q0 -18 24.5 -37t53 -34t53 -48t24.5 -76 q0 -104 -84 -160.5t-192 -56.5q-121 0 -228 66l80 157q68 -51 135 -51q66 0 66 35q0 20 -20.5 37.5t-46 28t-46 32t-20.5 49.5q0 41 37 95q-350 55 -350 456z" />
<glyph unicode="&#xc8;" horiz-adv-x="1064" d="M14 0l267 1370h852l-56 -248h-512l-57 -280h420l-54 -248h-411l-70 -346h525v-248h-904zM238 1708q4 14 14 36.5t57 82t113 106.5q70 -90 162 -172t149 -117l58 -36l-113 -166q-31 8 -81 25.5t-168 86t-191 154.5z" />
<glyph unicode="&#xc9;" horiz-adv-x="1064" d="M14 0l267 1370h852l-56 -248h-512l-57 -280h420l-54 -248h-411l-70 -346h525v-248h-904zM571 1616q8 10 23.5 25.5t65 60.5t99.5 83t121.5 80t137.5 64q10 -10 27.5 -29.5t52.5 -86t51 -140.5q-104 -29 -222 -86t-184 -100l-65 -43z" />
<glyph unicode="&#xca;" horiz-adv-x="1064" d="M14 0l267 1370h852l-56 -248h-512l-57 -280h420l-54 -248h-411l-70 -346h525v-248h-904zM358 1645q233 199 433 307q55 -78 135 -156t132 -117l52 -39l-111 -167q-152 43 -274 163l-262 -163z" />
<glyph unicode="&#xcb;" horiz-adv-x="1064" d="M14 0l267 1370h852l-56 -248h-512l-57 -280h420l-54 -248h-411l-70 -346h525v-248h-904zM348 1657q0 72 46 120t126 48q154 0 154 -148q0 -68 -49.5 -116t-126.5 -48q-74 0 -112 39t-38 105zM795 1657q0 72 46 120t124 48q153 0 153 -146q0 -70 -48 -118t-126 -48 q-74 0 -111.5 39t-37.5 105z" />
<glyph unicode="&#xcc;" horiz-adv-x="628" d="M-14 1708q4 14 14 36.5t57 82t111 106.5q147 -189 362 -320l9 -5l-113 -166q-31 8 -81 25.5t-168 86t-191 154.5zM14 0l267 1370h331l-266 -1370h-332z" />
<glyph unicode="&#xcd;" horiz-adv-x="628" d="M14 0l267 1370h331l-266 -1370h-332zM319 1616q8 10 23.5 25.5t65 60.5t99.5 83t121.5 80t137.5 64q94 -90 129 -256q-104 -29 -222 -86t-183 -100l-64 -43z" />
<glyph unicode="&#xce;" horiz-adv-x="628" d="M14 0l267 1370h331l-266 -1370h-332zM106 1645q231 199 431 307q57 -78 137 -156t132 -117l52 -39l-113 -167q-150 43 -272 163l-262 -163z" />
<glyph unicode="&#xcf;" horiz-adv-x="628" d="M14 0l267 1370h331l-266 -1370h-332zM94 1657q0 72 46 120t126 48q154 0 154 -148q0 -68 -48 -116t-126 -48q-76 0 -114 39t-38 105zM541 1657q0 72 46 120t124 48q153 0 153 -146q0 -70 -47 -118t-127 -48q-74 0 -111.5 39t-37.5 105z" />
<glyph unicode="&#xd0;" horiz-adv-x="1339" d="M-4 586l47 250h137l107 544l213 -16q147 31 299 31q475 0 475 -467q0 -211 -42 -374t-137.5 -292t-262 -197.5t-400.5 -68.5q-80 0 -182.5 2t-104.5 2h-125l113 586h-137zM403 256h86q217 0 324 179t107 460q-1 250 -189 250q-94 0 -160 -17l-57 -292h236l-50 -250h-235z " />
<glyph unicode="&#xd1;" horiz-adv-x="1404" d="M14 37l254 1333h275l303 -696q12 -29 39.5 -100.5t40.5 -100.5q8 125 20 195l115 721l317 -52l-252 -1339h-276l-311 704q-8 16 -74 189q-18 -182 -21 -193l-114 -710zM662 1620l26 133q51 29 117 29q23 0 61.5 -12.5t71.5 -12.5q20 0 48 4t46 9l19 6l-29 -134 q-47 -28 -111 -28h-4q-23 0 -62.5 12t-72.5 12q-20 0 -48 -4t-45 -9z" />
<glyph unicode="&#xd2;" d="M66 440q0 186 47 354.5t137 304.5t238.5 216t336.5 80q477 0 478 -467q0 -147 -29 -285.5t-90.5 -261.5t-149.5 -214t-215 -144.5t-278 -53.5q-475 0 -475 471zM369 1708q4 14 14 36.5t57 82t111 106.5q147 -189 362 -320l9 -5l-113 -166q-31 8 -81 25.5t-168 86 t-191 154.5zM422 477q0 -254 186 -254q111 0 192 114t114.5 261t33.5 297q0 246 -186 246q-111 0 -192 -111.5t-114.5 -258t-33.5 -294.5z" />
<glyph unicode="&#xd3;" d="M66 440q0 186 47 354.5t137 304.5t238.5 216t336.5 80q477 0 478 -467q0 -147 -29 -285.5t-90.5 -261.5t-149.5 -214t-215 -144.5t-278 -53.5q-475 0 -475 471zM422 477q0 -254 186 -254q111 0 192 114t114.5 261t33.5 297q0 246 -186 246q-111 0 -192 -111.5 t-114.5 -258t-33.5 -294.5zM702 1616q8 10 23.5 25.5t65 60.5t99.5 83t121.5 80t137.5 64q94 -90 129 -256q-104 -29 -222 -86t-183 -100l-64 -43z" />
<glyph unicode="&#xd4;" d="M66 440q0 186 47 354.5t137 304.5t238.5 216t336.5 80q477 0 478 -467q0 -147 -29 -285.5t-90.5 -261.5t-149.5 -214t-215 -144.5t-278 -53.5q-475 0 -475 471zM422 477q0 -254 186 -254q111 0 192 114t114.5 261t33.5 297q0 246 -186 246q-111 0 -192 -111.5 t-114.5 -258t-33.5 -294.5zM489 1645q231 199 431 307q57 -78 137 -156t132 -117l52 -39l-113 -167q-150 43 -272 163l-262 -163z" />
<glyph unicode="&#xd5;" d="M66 440q0 186 47 354.5t137 304.5t238.5 216t336.5 80q477 0 478 -467q0 -147 -29 -285.5t-90.5 -261.5t-149.5 -214t-215 -144.5t-278 -53.5q-475 0 -475 471zM422 477q0 -254 186 -254q111 0 192 114t114.5 261t33.5 297q0 246 -186 246q-111 0 -192 -111.5 t-114.5 -258t-33.5 -294.5zM674 1620l26 133q51 29 115 29q23 0 63 -12.5t72 -12.5q20 0 48 4t45 9l18 6l-27 -134q-49 -28 -110 -28h-4q-23 0 -63 12t-73 12q-20 0 -47.5 -4t-45.5 -9z" />
<glyph unicode="&#xd6;" d="M66 440q0 186 47 354.5t137 304.5t238.5 216t336.5 80q477 0 478 -467q0 -147 -29 -285.5t-90.5 -261.5t-149.5 -214t-215 -144.5t-278 -53.5q-475 0 -475 471zM422 477q0 -254 186 -254q111 0 192 114t114.5 261t33.5 297q0 246 -186 246q-111 0 -192 -111.5 t-114.5 -258t-33.5 -294.5zM477 1657q0 72 46 120t126 48q154 0 154 -148q0 -68 -48 -116t-126 -48q-76 0 -114 39t-38 105zM924 1657q0 72 46 120t124 48q153 0 153 -146q0 -70 -48 -118t-126 -48q-74 0 -111.5 39t-37.5 105z" />
<glyph unicode="&#xd7;" horiz-adv-x="1077" d="M66 358l294 252l-190 244l213 174l186 -240l287 246l154 -198l-283 -244l199 -254l-213 -174l-195 250l-295 -252z" />
<glyph unicode="&#xd8;" d="M66 440q0 186 47 354.5t137 304.5t238.5 216t336.5 80q66 0 131 -11l80 138l213 -117l-69 -121q123 -117 123 -356q0 -147 -29 -285.5t-90.5 -261.5t-149.5 -214t-215 -144.5t-278 -53.5q-51 0 -129 13l-76 -129l-211 110l68 117q-127 119 -127 360zM422 473l391 668 q-25 4 -51 4q-104 0 -182 -99.5t-115 -232.5t-43 -276v-64zM557 227q16 -4 51 -4q143 0 232.5 175.5t101.5 394.5l4 96z" />
<glyph unicode="&#xd9;" horiz-adv-x="1343" d="M76 383q0 66 16 147l164 840h332l-164 -838q-10 -49 -10 -106q0 -94 44 -145.5t122 -51.5q96 0 161.5 87t94.5 233l161 821h332l-166 -856q-45 -236 -200.5 -382t-438.5 -146q-233 0 -340.5 107.5t-107.5 289.5zM350 1708q4 14 14.5 36.5t57.5 82t110 106.5 q147 -189 362 -320l9 -5l-112 -166q-31 8 -81.5 25.5t-168 86t-191.5 154.5z" />
<glyph unicode="&#xda;" horiz-adv-x="1343" d="M76 383q0 66 16 147l164 840h332l-164 -838q-10 -49 -10 -106q0 -94 44 -145.5t122 -51.5q96 0 161.5 87t94.5 233l161 821h332l-166 -856q-45 -236 -200.5 -382t-438.5 -146q-233 0 -340.5 107.5t-107.5 289.5zM684 1616q8 10 23.5 25.5t64.5 60.5t99.5 83t122 80 t136.5 64q94 -90 130 -256q-104 -29 -222 -86t-183 -100l-64 -43z" />
<glyph unicode="&#xdb;" horiz-adv-x="1343" d="M76 383q0 66 16 147l164 840h332l-164 -838q-10 -49 -10 -106q0 -94 44 -145.5t122 -51.5q96 0 161.5 87t94.5 233l161 821h332l-166 -856q-45 -236 -200.5 -382t-438.5 -146q-233 0 -340.5 107.5t-107.5 289.5zM471 1645q231 199 430 307q57 -78 137 -156t132 -117 l53 -39l-113 -167q-150 43 -272 163l-263 -163z" />
<glyph unicode="&#xdc;" horiz-adv-x="1343" d="M76 383q0 66 16 147l164 840h332l-164 -838q-10 -49 -10 -106q0 -94 44 -145.5t122 -51.5q96 0 161.5 87t94.5 233l161 821h332l-166 -856q-45 -236 -200.5 -382t-438.5 -146q-233 0 -340.5 107.5t-107.5 289.5zM459 1657q0 72 46 120t126 48q153 0 153 -146 q0 -70 -48 -118t-126 -48q-76 0 -113.5 39t-37.5 105zM905 1657q0 72 46 120t124 48q154 0 154 -148q0 -68 -47 -116t-127 -48q-74 0 -112 39t-38 105z" />
<glyph unicode="&#xdd;" horiz-adv-x="960" d="M57 1370h336l107 -434q158 305 401 467l197 -158q-94 -90 -148.5 -146.5t-128 -144.5t-114.5 -168.5t-82 -188.5t-58.5 -237t-17.5 -282v-78h-330v82q0 260 92 477zM475 1616q8 10 23.5 25.5t64.5 60.5t99.5 83t122 80t137.5 64q10 -10 27.5 -29.5t52 -86t51.5 -140.5 q-104 -29 -222 -86t-184 -100l-65 -43z" />
<glyph unicode="&#xde;" horiz-adv-x="1112" d="M14 0l265 1370h331l-45 -231q35 4 99 4q421 0 421 -332q0 -258 -172 -400.5t-409 -142.5q-74 0 -107 2l-51 -270h-332zM449 526h59q98 0 163.5 61.5t65.5 168.5q0 149 -145 149q-41 0 -72 -6z" />
<glyph unicode="&#xdf;" horiz-adv-x="1193" d="M-252 -236q137 63 203.5 136t91.5 198l168 883q47 240 194.5 372t430.5 132q182 0 265 -68.5t83 -181.5q0 -92 -46 -165t-100.5 -108.5t-100.5 -78.5t-46 -86t36 -87t78 -79t77.5 -99.5t35.5 -144.5q0 -166 -123 -283.5t-311 -117.5q-174 0 -276 71l112 215 q63 -41 135 -41q129 0 129 111q0 47 -33.5 89t-72.5 73t-73 89t-34 132q0 92 45.5 164t98.5 108.5t98 79.5t45 84q0 76 -100 76q-174 0 -219 -227l-174 -908q-23 -115 -67 -201.5t-115.5 -152t-140.5 -107.5t-179 -98z" />
<glyph unicode="&#xe0;" horiz-adv-x="1087" d="M45 334q0 305 155.5 499.5t432.5 194.5q127 0 233 -49l164 -10l-86 -447q-20 -94 -20 -174q0 -145 82 -270l-258 -103q-74 84 -74 197q0 72 6 127l-27 -57q-122 -260 -327 -260q-141 0 -211 104t-70 248zM268 1442q8 12 23.5 31.5t75 65.5t133.5 77q47 -104 117.5 -204.5 t117.5 -149.5l47 -50l-149 -135l-28 17q-17 10 -66.5 47t-93.5 75.5t-94 100t-83 125.5zM377 328q0 -105 47 -105q57 0 125.5 148.5t109.5 320.5l21 92q-23 8 -62 9q-66 0 -115.5 -51.5t-75.5 -129t-38 -150.5t-12 -134z" />
<glyph unicode="&#xe1;" horiz-adv-x="1087" d="M45 334q0 305 155.5 499.5t432.5 194.5q127 0 233 -49l164 -10l-86 -447q-20 -94 -20 -174q0 -145 82 -270l-258 -103q-74 84 -74 197q0 72 6 127l-27 -57q-122 -260 -327 -260q-141 0 -211 104t-70 248zM377 328q0 -105 47 -105q57 0 125.5 148.5t109.5 320.5l21 92 q-23 8 -62 9q-66 0 -115.5 -51.5t-75.5 -129t-38 -150.5t-12 -134zM494 1229q18 31 52 78t134 151.5t197 157.5q12 -8 32.5 -24.5t66.5 -76t75 -129.5q-209 -100 -414 -303l-6 -6z" />
<glyph unicode="&#xe2;" horiz-adv-x="1087" d="M45 334q0 305 155.5 499.5t432.5 194.5q127 0 233 -49l164 -10l-86 -447q-20 -94 -20 -174q0 -145 82 -270l-258 -103q-74 84 -74 197q0 72 6 127l-27 -57q-122 -260 -327 -260q-141 0 -211 104t-70 248zM252 1229q268 279 455 403q137 -206 309 -403l-150 -135 q-117 70 -227 188l-236 -188zM377 328q0 -105 47 -105q57 0 125.5 148.5t109.5 320.5l21 92q-23 8 -62 9q-66 0 -115.5 -51.5t-75.5 -129t-38 -150.5t-12 -134z" />
<glyph unicode="&#xe3;" horiz-adv-x="1087" d="M45 334q0 305 155.5 499.5t432.5 194.5q127 0 233 -49l164 -10l-86 -447q-20 -94 -20 -174q0 -145 82 -270l-258 -103q-74 84 -74 197q0 72 6 127l-27 -57q-122 -260 -327 -260q-141 0 -211 104t-70 248zM297 1223l43 211q88 51 197 51q45 0 135 -22.5t149 -22.5 q41 0 89 8t76 16l28 9l-43 -211q-88 -51 -199 -52q-47 0 -136 22.5t-147 22.5q-41 0 -89 -8t-75 -16zM377 328q0 -105 47 -105q57 0 125.5 148.5t109.5 320.5l21 92q-23 8 -62 9q-66 0 -115.5 -51.5t-75.5 -129t-38 -150.5t-12 -134z" />
<glyph unicode="&#xe4;" horiz-adv-x="1087" d="M45 334q0 305 155.5 499.5t432.5 194.5q127 0 233 -49l164 -10l-86 -447q-20 -94 -20 -174q0 -145 82 -270l-258 -103q-74 84 -74 197q0 72 6 127l-27 -57q-122 -260 -327 -260q-141 0 -211 104t-70 248zM266 1307q0 72 46 120t126 48q154 0 154 -148q0 -68 -49 -116 t-127 -48q-74 0 -112 39t-38 105zM377 328q0 -105 47 -105q57 0 125.5 148.5t109.5 320.5l21 92q-23 8 -62 9q-66 0 -115.5 -51.5t-75.5 -129t-38 -150.5t-12 -134zM711 1307q0 72 46 120t126 48q153 0 153 -146q0 -70 -48 -118t-126 -48q-76 0 -113.5 39t-37.5 105z" />
<glyph unicode="&#xe5;" horiz-adv-x="1083" d="M63 334q0 303 155 498.5t431 195.5q127 0 234 -49l166 -10l-88 -447q-18 -98 -19 -174q0 -150 82 -270l-260 -103q-74 84 -74 197q0 45 6 127l-26 -57q-121 -260 -328 -260q-141 0 -210 104t-69 248zM393 328q0 -105 49 -105q57 0 126 150.5t108 318.5l20 92q-23 8 -59 9 q-68 0 -118 -51.5t-75.5 -129t-38 -150.5t-12.5 -134zM471 1313q0 113 77 191.5t195 78.5q92 0 143.5 -54t51.5 -140q0 -111 -76.5 -190t-195.5 -79q-92 0 -143.5 53.5t-51.5 139.5zM633 1327q0 -61 57 -61q37 0 61.5 32.5t24.5 73.5q0 64 -55 64q-39 0 -63.5 -33t-24.5 -76 z" />
<glyph unicode="&#xe6;" horiz-adv-x="1513" d="M45 334q0 305 155.5 499.5t432.5 194.5q139 0 270 -65q119 71 269 71h4q323 0 323 -250q0 -174 -157.5 -288.5t-413.5 -139.5q0 -2 -2 -18t-2 -27q0 -96 100 -96q78 0 307 84l68 -209l-71 -32q-44 -19 -158.5 -52t-202.5 -33q-268 0 -344 213q-113 -204 -297 -204 q-141 0 -211 104t-70 248zM377 328q0 -105 47 -105q57 0 125.5 148.5t109.5 320.5l21 92q-23 8 -62 9q-66 0 -115.5 -51.5t-75.5 -129t-38 -150.5t-12 -134zM958 580q104 12 166 61t62 100q-1 56 -60 56q-51 0 -97 -60.5t-71 -156.5z" />
<glyph unicode="&#xe7;" horiz-adv-x="823" d="M45 334q0 297 154.5 498.5t423.5 201.5q203 0 256 -229l-234 -90q-2 4 -6 16t-6 17.5t-7 14.5t-11.5 13t-14.5 8t-20 4q-94 0 -149.5 -146t-55.5 -304q0 -123 96 -123q43 0 199 49l71 -217q-106 -53 -270 -70q-8 -20 -8 -30q0 -18 24.5 -37t54 -34t54.5 -48t25 -76 q0 -104 -84 -160.5t-193 -56.5q-123 0 -227 66l80 157q68 -51 135 -51q65 0 65 34q0 21 -21.5 38.5t-46 28t-46 32t-21.5 49.5q0 35 41 99q-135 27 -196.5 122t-61.5 224z" />
<glyph unicode="&#xe8;" horiz-adv-x="960" d="M45 334q0 295 155.5 497.5t422.5 202.5q166 0 244.5 -67.5t78.5 -184.5q0 -172 -158.5 -287.5t-414.5 -138.5q0 -4 -1 -20.5t-1 -24.5q0 -96 100 -96q33 0 109.5 21.5t136.5 42.5l59 20l70 -209l-71 -32q-44 -19 -159.5 -52t-203.5 -33q-193 0 -280 103.5t-87 257.5z M266 1450q8 12 23.5 31.5t75 65.5t133.5 77q47 -104 116.5 -204.5t116.5 -149.5l47 -49l-149 -136q-29 16 -73 45t-142.5 124.5t-147.5 195.5zM406 580q104 12 165.5 61t61.5 100q-1 56 -60 56q-53 0 -98 -59.5t-69 -157.5z" />
<glyph unicode="&#xe9;" horiz-adv-x="960" d="M45 334q0 295 155.5 497.5t422.5 202.5q166 0 244.5 -67.5t78.5 -184.5q0 -172 -158.5 -287.5t-414.5 -138.5q0 -4 -1 -20.5t-1 -24.5q0 -96 100 -96q33 0 109.5 21.5t136.5 42.5l59 20l70 -209l-71 -32q-44 -19 -159.5 -52t-203.5 -33q-193 0 -280 103.5t-87 257.5z M406 580q104 12 165.5 61t61.5 100q-1 56 -60 56q-53 0 -98 -59.5t-69 -157.5zM504 1237q18 31 52 78t134.5 151.5t196.5 157.5q12 -8 32.5 -24.5t66.5 -76t75 -128.5q-98 -47 -203.5 -125t-162.5 -131l-56 -54z" />
<glyph unicode="&#xea;" horiz-adv-x="960" d="M45 334q0 295 155.5 497.5t422.5 202.5q166 0 244.5 -67.5t78.5 -184.5q0 -172 -158.5 -287.5t-414.5 -138.5q0 -4 -1 -20.5t-1 -24.5q0 -96 100 -96q33 0 109.5 21.5t136.5 42.5l59 20l70 -209l-71 -32q-44 -19 -159.5 -52t-203.5 -33q-193 0 -280 103.5t-87 257.5z M281 1237q268 279 454 403q137 -206 309 -403l-149 -135q-119 70 -227 188l-238 -188zM406 580q104 12 165.5 61t61.5 100q-1 56 -60 56q-53 0 -98 -59.5t-69 -157.5z" />
<glyph unicode="&#xeb;" horiz-adv-x="960" d="M45 334q0 295 155.5 497.5t422.5 202.5q166 0 244.5 -67.5t78.5 -184.5q0 -172 -158.5 -287.5t-414.5 -138.5q0 -4 -1 -20.5t-1 -24.5q0 -96 100 -96q33 0 109.5 21.5t136.5 42.5l59 20l70 -209l-71 -32q-44 -19 -159.5 -52t-203.5 -33q-193 0 -280 103.5t-87 257.5z M293 1315q0 72 46 120t126 48q153 0 153 -146q0 -70 -48 -118t-126 -48q-76 0 -113.5 39t-37.5 105zM406 580q104 12 165.5 61t61.5 100q-1 56 -60 56q-53 0 -98 -59.5t-69 -157.5zM739 1315q0 72 46 120t124 48q154 0 154 -148q0 -70 -48 -117t-126 -47q-74 0 -112 39 t-38 105z" />
<glyph unicode="&#xec;" horiz-adv-x="608" d="M55 184q0 18 8 64l152 756h313l-133 -678q-8 -47 -8 -54q0 -37 27 -36q25 0 92 22v-221q-108 -51 -223 -51q-106 0 -167 54t-61 144zM72 1477q102 84 252 139q41 -98 93 -204.5t85 -164.5l33 -57l-166 -113q-178 176 -297 400z" />
<glyph unicode="&#xed;" horiz-adv-x="608" d="M55 184q0 18 8 64l152 756h313l-133 -678q-8 -47 -8 -54q0 -37 27 -36q25 0 92 22v-221q-108 -51 -223 -51q-106 0 -167 54t-61 144zM231 1192q100 238 271 424q119 -66 217 -186q-168 -152 -322 -353z" />
<glyph unicode="&#xee;" horiz-adv-x="608" d="M55 184q0 18 8 64l152 756h313l-133 -678q-8 -47 -8 -54q0 -37 27 -36q25 0 92 22v-221q-108 -51 -223 -51q-106 0 -167 54t-61 144zM88 1202q246 287 416 412q49 -86 99 -193.5t75 -171.5l24 -63l-167 -113q-55 74 -123 187l-172 -187z" />
<glyph unicode="&#xef;" horiz-adv-x="608" d="M55 184q0 18 8 64l152 756h313l-133 -678q-8 -47 -8 -54q0 -37 27 -36q25 0 92 22v-221q-108 -51 -223 -51q-106 0 -167 54t-61 144zM78 1331q0 70 46 117t124 47q151 0 151 -141q0 -70 -48 -118t-124 -48q-74 0 -111.5 39t-37.5 104zM451 1331q0 70 44.5 117t122.5 47 q152 0 152 -143q0 -68 -47 -116t-125 -48q-74 0 -110.5 39t-36.5 104z" />
<glyph unicode="&#xf0;" horiz-adv-x="1026" d="M45 334q0 293 149.5 496.5t397.5 203.5q63 0 131 -43q-29 59 -68 111l-192 -60l-55 185l124 35l-53 61l197 164q82 -63 141 -141l203 57l51 -189l-156 -38q78 -176 78 -412q0 -154 -29.5 -287t-93 -249.5t-181.5 -185.5t-277 -69q-193 0 -280 103.5t-87 257.5zM375 319 q0 -116 79 -116h1q90 0 146 157.5t56 326.5q0 118 -77 118q-92 0 -148.5 -159t-56.5 -327z" />
<glyph unicode="&#xf1;" horiz-adv-x="1130" d="M25 0l104 524q20 96 21 176q0 129 -64 232l258 100q57 -63 57 -170q0 -45 -14 -151l27 57q121 260 362 260q256 0 256 -254q0 -125 -61.5 -306t-61.5 -247q0 -104 27 -221h-320q-14 82 -14 156q0 100 55.5 283.5t55.5 262.5q0 63 -49 64q-74 0 -151 -140.5t-107 -293.5 l-64 -332h-317zM440 1223l43 211q88 51 199 51q47 0 135 -22.5t148 -22.5q41 0 89 8t75 16l28 9l-43 -211q-88 -51 -199 -52q-47 0 -135 22.5t-147 22.5q-41 0 -89 -8t-76 -16z" />
<glyph unicode="&#xf2;" horiz-adv-x="1034" d="M45 334q0 297 155 498.5t423 201.5q193 0 279.5 -104.5t86.5 -259.5q0 -299 -153.5 -498t-423.5 -199q-193 0 -280 103.5t-87 257.5zM262 1450q8 12 23.5 31.5t75 65.5t133.5 77q47 -104 117.5 -204.5t117.5 -149.5l47 -49l-149 -136l-28 16q-17 11 -66.5 48t-93.5 76 t-94 100t-83 125zM375 319q0 -116 79 -116h1q90 0 146 157.5t56 326.5q0 118 -77 118q-92 0 -148.5 -159t-56.5 -327z" />
<glyph unicode="&#xf3;" horiz-adv-x="1034" d="M45 334q0 297 155 498.5t423 201.5q193 0 279.5 -104.5t86.5 -259.5q0 -299 -153.5 -498t-423.5 -199q-193 0 -280 103.5t-87 257.5zM375 319q0 -116 79 -116h1q90 0 146 157.5t56 326.5q0 118 -77 118q-92 0 -148.5 -159t-56.5 -327zM504 1237q18 31 51 78t133 151.5 t199 157.5q12 -8 32.5 -24.5t66.5 -76t75 -128.5q-98 -47 -203.5 -125t-162.5 -131l-56 -54z" />
<glyph unicode="&#xf4;" horiz-adv-x="1034" d="M45 334q0 297 155 498.5t423 201.5q193 0 279.5 -104.5t86.5 -259.5q0 -299 -153.5 -498t-423.5 -199q-193 0 -280 103.5t-87 257.5zM276 1237q268 279 455 403q137 -206 309 -403l-149 -135q-117 70 -227 188l-236 -188zM375 319q0 -116 79 -116h1q90 0 146 157.5 t56 326.5q0 118 -77 118q-92 0 -148.5 -159t-56.5 -327z" />
<glyph unicode="&#xf5;" horiz-adv-x="1034" d="M45 334q0 297 155 498.5t423 201.5q193 0 279.5 -104.5t86.5 -259.5q0 -299 -153.5 -498t-423.5 -199q-193 0 -280 103.5t-87 257.5zM311 1231l43 211q88 51 199 51q47 0 136 -22.5t147 -22.5q41 0 89 8t75 17l28 8l-43 -211q-88 -51 -197 -51q-47 0 -137 22.5t-147 22.5 q-41 0 -89 -8.5t-76 -16.5zM375 319q0 -116 79 -116h1q90 0 146 157.5t56 326.5q0 118 -77 118q-92 0 -148.5 -159t-56.5 -327z" />
<glyph unicode="&#xf6;" horiz-adv-x="1034" d="M45 334q0 297 155 498.5t423 201.5q193 0 279.5 -104.5t86.5 -259.5q0 -299 -153.5 -498t-423.5 -199q-193 0 -280 103.5t-87 257.5zM291 1315q0 72 46 120t126 48q153 0 153 -146q0 -70 -49 -118t-127 -48q-74 0 -111.5 39t-37.5 105zM375 319q0 -116 79 -116h1 q90 0 146 157.5t56 326.5q0 118 -77 118q-92 0 -148.5 -159t-56.5 -327zM735 1315q0 72 46 120t126 48q154 0 154 -148q0 -68 -48 -116t-126 -48q-76 0 -114 39t-38 105z" />
<glyph unicode="&#xf7;" horiz-adv-x="983" d="M45 526l47 250h836l-45 -250h-838zM268 262q0 72 47 119t127 47q152 0 152 -143q0 -68 -47 -115t-125 -47q-76 0 -115 38t-39 101zM385 1010q0 70 47 118t125 48q152 0 152 -146q0 -68 -46.5 -115t-123.5 -47q-76 0 -115 38t-39 104z" />
<glyph unicode="&#xf8;" horiz-adv-x="1034" d="M45 334q0 297 155 498.5t423 201.5q63 0 133 -18l80 119l131 -88l-72 -111q94 -96 94 -266q0 -299 -153.5 -498t-423.5 -199q-68 0 -138 19l-79 -121l-134 90l76 111q-92 94 -92 262zM379 442l237 363q-13 8 -36 8q-84 0 -136.5 -111.5t-64.5 -259.5zM414 203 q16 -8 41 -8q82 0 134 112.5t64 259.5z" />
<glyph unicode="&#xf9;" horiz-adv-x="1120" d="M55 236q0 115 58.5 303t58.5 262q0 90 -20 157l274 68q57 -117 57 -238q0 -84 -53 -245.5t-53 -237.5q0 -61 47 -61q74 0 150.5 140t107.5 294l66 332h315l-105 -525q-20 -96 -20 -174q0 -123 70 -233l-258 -103q-61 70 -62 179q0 39 12 145l-26 -57q-121 -260 -363 -260 q-256 0 -256 254zM274 1442q8 12 23.5 31.5t76 65.5t134.5 77q45 -104 115.5 -204.5t117.5 -149.5l47 -50l-149 -135l-27 16q-18 11 -67 48t-93 75.5t-94.5 100t-83.5 125.5z" />
<glyph unicode="&#xfa;" horiz-adv-x="1120" d="M55 236q0 115 58.5 303t58.5 262q0 90 -20 157l274 68q57 -117 57 -238q0 -84 -53 -245.5t-53 -237.5q0 -61 47 -61q74 0 150.5 140t107.5 294l66 332h315l-105 -525q-20 -96 -20 -174q0 -123 70 -233l-258 -103q-61 70 -62 179q0 39 12 145l-26 -57q-121 -260 -363 -260 q-256 0 -256 254zM516 1229q18 31 52 78t134.5 151.5t196.5 157.5q12 -8 32.5 -24.5t66.5 -76t75 -129.5q-209 -100 -414 -303l-6 -6z" />
<glyph unicode="&#xfb;" horiz-adv-x="1120" d="M55 236q0 115 58.5 303t58.5 262q0 90 -20 157l274 68q57 -117 57 -238q0 -84 -53 -245.5t-53 -237.5q0 -61 47 -61q74 0 150.5 140t107.5 294l66 332h315l-105 -525q-20 -96 -20 -174q0 -123 70 -233l-258 -103q-61 70 -62 179q0 39 12 145l-26 -57q-121 -260 -363 -260 q-256 0 -256 254zM291 1229q268 279 452 403q137 -206 310 -403l-150 -135q-117 70 -225 188l-238 -188z" />
<glyph unicode="&#xfc;" horiz-adv-x="1120" d="M55 236q0 115 58.5 303t58.5 262q0 90 -20 157l274 68q57 -117 57 -238q0 -84 -53 -245.5t-53 -237.5q0 -61 47 -61q74 0 150.5 140t107.5 294l66 332h315l-105 -525q-20 -96 -20 -174q0 -123 70 -233l-258 -103q-61 70 -62 179q0 39 12 145l-26 -57q-121 -260 -363 -260 q-256 0 -256 254zM303 1307q0 72 46 120t126 48q154 0 154 -148q0 -68 -48.5 -116t-127.5 -48q-74 0 -112 39t-38 105zM750 1307q0 72 46 120t124 48q153 0 153 -146q0 -70 -48 -118t-126 -48q-74 0 -111.5 39t-37.5 105z" />
<glyph unicode="&#xfd;" horiz-adv-x="1126" d="M61 -332l115 244q225 -94 350 -94q80 0 124 46t44 111q0 23 -1 67t-1 85q0 20 17 174l-27 -59q-121 -260 -363 -260q-256 0 -256 254q0 115 58.5 303t58.5 262q0 90 -20 157l274 68q57 -117 58 -238q0 -84 -54.5 -245.5t-54.5 -237.5q0 -61 49 -61q74 0 150.5 140 t107.5 294l66 332h315q-125 -635 -125 -691q0 -72 16.5 -186.5t16.5 -187.5q0 -197 -115.5 -298.5t-318.5 -101.5q-227 0 -484 123zM510 1229q18 31 51 78t133.5 151.5t198.5 157.5q12 -8 31.5 -24.5t65.5 -76t75 -129.5q-207 -101 -414 -303l-6 -6z" />
<glyph unicode="&#xfe;" horiz-adv-x="1079" d="M-47 -455l369 1899l319 41l-43 -234q-10 -61 -30.5 -125.5t-35.5 -102.5l-58 -135l-60 -143q84 156 166 219.5t174 63.5q141 0 210.5 -104.5t69.5 -247.5q0 -305 -155.5 -499.5t-432.5 -194.5q-39 0 -96 8l-78 -404zM397 225q27 -8 64 -8q66 0 116 51t75.5 129t37.5 151 t12 134q0 104 -47 104q-57 0 -125.5 -150t-115.5 -343z" />
<glyph unicode="&#xff;" horiz-adv-x="1126" d="M61 -332l115 244q225 -94 350 -94q80 0 124 46t44 111q0 23 -1 67t-1 85q0 20 17 174l-27 -59q-121 -260 -363 -260q-256 0 -256 254q0 115 58.5 303t58.5 262q0 90 -20 157l274 68q57 -117 58 -238q0 -84 -54.5 -245.5t-54.5 -237.5q0 -61 49 -61q74 0 150.5 140 t107.5 294l66 332h315q-125 -635 -125 -691q0 -72 16.5 -186.5t16.5 -187.5q0 -197 -115.5 -298.5t-318.5 -101.5q-227 0 -484 123zM295 1307q0 72 46 120t126 48q154 0 154 -148q0 -68 -48.5 -116t-126.5 -48q-76 0 -113.5 39t-37.5 105zM741 1307q0 72 46 120t124 48 q154 0 154 -148q0 -70 -47 -117t-127 -47q-74 0 -112 39t-38 105z" />
<glyph unicode="&#x131;" horiz-adv-x="608" d="M55 184q0 18 8 64l152 756h313l-133 -678q-8 -47 -8 -54q0 -37 27 -36q25 0 92 22v-221q-108 -51 -223 -51q-106 0 -167 54t-61 144z" />
<glyph unicode="&#x152;" horiz-adv-x="1716" d="M66 440q0 186 47 353.5t136 300.5t232.5 211.5t323.5 78.5q72 0 139 -14h838l-53 -248h-504l-56 -280h410l-53 -248h-402l-69 -346h514v-248h-840q-90 -27 -188 -27q-248 0 -361.5 119t-113.5 348zM422 477q0 -254 186 -254q47 0 113 15l174 886q-57 16 -133 17 q-84 0 -152.5 -64.5t-107.5 -166t-59.5 -213t-20.5 -220.5z" />
<glyph unicode="&#x153;" horiz-adv-x="1544" d="M45 334q0 297 155 498.5t423 201.5q188 0 262 -114q130 114 316 114h3q166 0 246 -66.5t80 -185.5q0 -172 -159 -287.5t-415 -138.5q-2 -10 -2 -45q0 -96 99 -96q78 0 307 84l70 -209q-238 -117 -435 -117q-180 0 -264 111q-131 -111 -319 -111q-193 0 -280 103.5 t-87 257.5zM375 319q0 -116 79 -116h1q90 0 146 157.5t56 326.5q0 118 -77 118q-92 0 -148.5 -159t-56.5 -327zM987 580q104 12 167 61t63 100q-1 56 -60 56q-53 0 -98 -59.5t-72 -157.5z" />
<glyph unicode="&#x178;" horiz-adv-x="960" d="M57 1370h336l107 -434q158 305 401 467l197 -158q-94 -90 -148.5 -146.5t-128 -144.5t-114.5 -168.5t-82 -188.5t-58.5 -237t-17.5 -282v-78h-330v82q0 260 92 477zM236 1657q0 72 46 120t126 48q153 0 153 -146q0 -70 -48 -118t-126 -48q-76 0 -113.5 39t-37.5 105z M682 1657q0 72 46 120t124 48q154 0 154 -148q0 -68 -48.5 -116t-126.5 -48q-74 0 -111.5 39t-37.5 105z" />
<glyph unicode="&#x2bc;" horiz-adv-x="645" d="M121 1081q106 68 140 132.5t34 148.5q0 51 -10 143q61 43 174 43q154 0 154 -145t-112 -279q-110 -133 -274 -217z" />
<glyph unicode="&#x2c6;" horiz-adv-x="1021" d="M127 1212q268 279 455 404q137 -206 309 -404l-150 -135q-119 70 -227 189l-238 -189z" />
<glyph unicode="&#x2da;" horiz-adv-x="1015" d="M274 1501q0 111 77 189.5t196 78.5q92 0 143 -53t51 -139q0 -113 -76.5 -191.5t-195.5 -78.5q-92 0 -143.5 54t-51.5 140zM436 1516q0 -61 58 -62q37 0 61.5 33t24.5 74q-1 63 -56 63q-39 0 -63.5 -32.5t-24.5 -75.5z" />
<glyph unicode="&#x2dc;" horiz-adv-x="1011" d="M145 1223l43 211q88 51 199 51q47 0 135 -22.5t148 -22.5q41 0 89 8t76 16l27 9l-43 -211q-88 -51 -198 -52q-47 0 -135.5 22.5t-147.5 22.5q-41 0 -89 -8t-76 -16z" />
<glyph unicode="&#x2000;" horiz-adv-x="976" />
<glyph unicode="&#x2001;" horiz-adv-x="1952" />
<glyph unicode="&#x2002;" horiz-adv-x="976" />
<glyph unicode="&#x2003;" horiz-adv-x="1952" />
<glyph unicode="&#x2004;" horiz-adv-x="650" />
<glyph unicode="&#x2005;" horiz-adv-x="488" />
<glyph unicode="&#x2006;" horiz-adv-x="325" />
<glyph unicode="&#x2007;" horiz-adv-x="325" />
<glyph unicode="&#x2008;" horiz-adv-x="244" />
<glyph unicode="&#x2009;" horiz-adv-x="390" />
<glyph unicode="&#x200a;" horiz-adv-x="108" />
<glyph unicode="&#x2010;" horiz-adv-x="829" d="M82 530l47 240h619l-46 -240h-620z" />
<glyph unicode="&#x2011;" horiz-adv-x="829" d="M82 530l47 240h619l-46 -240h-620z" />
<glyph unicode="&#x2012;" horiz-adv-x="829" d="M82 530l47 240h619l-46 -240h-620z" />
<glyph unicode="&#x2013;" horiz-adv-x="983" d="M-49 532l47 240h999l-43 -240h-1003z" />
<glyph unicode="&#x2014;" horiz-adv-x="1357" d="M-49 532l47 240h1374l-43 -240h-1378z" />
<glyph unicode="&#x2018;" horiz-adv-x="557" d="M313 1326q111 134 275 218l106 -174q-109 -68 -142.5 -133t-33.5 -147q0 -35 12 -146q-63 -43 -176 -43q-153 0 -153 145t112 280z" />
<glyph unicode="&#x2019;" horiz-adv-x="557" d="M121 1083q109 68 141.5 132.5t32.5 146.5q0 53 -10 145q61 43 174 43q154 0 154 -144q0 -145 -112 -280q-110 -133 -274 -219z" />
<glyph unicode="&#x201a;" horiz-adv-x="581" d="M-84 -129q106 68 140 132.5t34 148.5q0 53 -10 145q61 43 174 43q154 0 154 -145.5t-111 -279.5t-274 -218z" />
<glyph unicode="&#x201c;" horiz-adv-x="954" d="M313 1326q111 134 275 218l106 -174q-109 -68 -142.5 -133t-33.5 -147q0 -35 12 -146q-63 -43 -176 -43q-153 0 -153 145t112 280zM645 1046.5q0 145.5 110.5 279.5t274.5 218l107 -174q-106 -68 -140 -132t-34 -148q0 -53 10 -146q-61 -43 -174 -43q-154 0 -154 145.5z " />
<glyph unicode="&#x201d;" horiz-adv-x="954" d="M168 1079q106 68 140 132.5t34 148.5q0 57 -10 143q61 43 174 43q153 0 153 -141q0 -147 -110.5 -281.5t-274.5 -218.5zM610 1079q109 68 142.5 133.5t33.5 147.5q0 57 -10 143q61 43 174 43q154 0 154 -143q0 -145 -111.5 -279.5t-275.5 -218.5z" />
<glyph unicode="&#x201e;" horiz-adv-x="999" d="M-100 -129q109 68 142.5 133.5t33.5 147.5q0 53 -10 145q61 43 174 43q153 0 153 -145t-112 -280q-111 -134 -275 -218zM344 -129q106 68 140 132.5t34 148.5q0 53 -10 145q61 43 174 43q154 0 154 -145.5t-111 -279.5t-274 -218z" />
<glyph unicode="&#x2022;" horiz-adv-x="655" d="M74 608q0 111 72.5 185.5t193.5 74.5q117 0 176 -59t59 -166q0 -109 -73.5 -182.5t-194.5 -73.5q-115 0 -174 60.5t-59 160.5z" />
<glyph unicode="&#x202f;" horiz-adv-x="390" />
<glyph unicode="&#x2039;" horiz-adv-x="770" d="M72 502q188 205 524 465l133 -164l-305 -301l211 -338l-170 -133q-268 266 -393 471z" />
<glyph unicode="&#x203a;" horiz-adv-x="770" d="M18 195l304 301q-174 277 -209 338l170 133q268 -266 393 -471q-188 -205 -524 -465z" />
<glyph unicode="&#x2044;" horiz-adv-x="819" d="M-150 0l768 1202h308l-770 -1202h-306z" />
<glyph unicode="&#x205f;" horiz-adv-x="488" />
<glyph unicode="&#x2074;" horiz-adv-x="741" d="M66 801v153l243 435h240l-227 -392h86l73 187l183 41l-43 -228h96l-41 -196h-92l-29 -154h-221l31 154h-299z" />
<glyph unicode="&#x20ac;" horiz-adv-x="1251" d="M35 344l49 250h111q0 20 8 57h-109l49 250h140q88 188 244.5 302t373.5 114q150 0 222.5 -45t111.5 -135l-242 -158q-25 47 -52.5 65.5t-80.5 18.5q-137 0 -231 -162h344l-88 -250h-338l-10 -57h327l-88 -250h-231q35 -121 162 -121q121 0 270 53l63 -227 q-182 -72 -401 -72q-403 0 -449 367h-155z" />
<glyph unicode="&#x2212;" horiz-adv-x="923" d="M182 492l41 249h705l-37 -249h-709z" />
<glyph unicode="&#x2215;" horiz-adv-x="886" d="M-262 -258l954 1751h332l-961 -1751h-325z" />
<glyph unicode="&#xe000;" horiz-adv-x="1025" d="M0 1025h1025v-1025h-1025v1025z" />
</font>
</defs>
</svg>
